<?xml version="1.0" standalone="no"?>
<!DOCTYPE svg PUBLIC "-//W3C//DTD SVG 20010904//EN"
 "http://www.w3.org/TR/2001/REC-SVG-20010904/DTD/svg10.dtd">
<svg version="1.0" xmlns="http://www.w3.org/2000/svg"
 width="1080.000000pt" height="1080.000000pt" viewBox="0 0 1080.000000 1080.000000"
 preserveAspectRatio="xMidYMid meet">

<g transform="translate(0.000000,1080.000000) scale(0.100000,-0.100000)"
fill="#000000" stroke="none">
<path d="M4989 8886 c-2 -3 -58 -7 -124 -11 -80 -4 -127 -10 -142 -20 -12 -8
-33 -15 -47 -15 -42 0 -188 -58 -240 -95 -61 -43 -52 -44 30 -4 34 17 74 32
87 33 14 0 23 4 20 9 -2 4 7 7 21 7 13 0 36 4 51 10 20 8 27 7 31 -5 4 -8 10
-12 15 -9 5 3 7 10 4 15 -4 5 1 9 9 9 9 0 16 7 16 15 0 8 9 15 21 15 11 0 17
-4 14 -10 -3 -6 1 -7 9 -4 9 3 16 10 16 14 0 4 10 8 23 8 58 1 180 21 190 31
6 6 9 11 6 11 -3 0 -8 -2 -10 -4z"/>
<path d="M5035 8880 c-4 -6 9 -10 32 -10 28 0 34 3 23 10 -20 13 -47 13 -55 0z"/>
<path d="M4715 8789 c-4 -6 -5 -12 -2 -15 2 -3 7 2 10 11 7 17 1 20 -8 4z"/>
<path d="M4706 8725 c-9 -9 -16 -21 -16 -26 0 -5 9 0 21 12 11 11 19 23 16 25
-3 3 -12 -2 -21 -11z"/>
<path d="M4866 8711 c-3 -5 1 -11 9 -15 9 -3 15 0 15 9 0 16 -16 20 -24 6z"/>
<path d="M4600 8693 c0 -5 5 -15 10 -23 8 -12 10 -11 10 8 0 12 -4 22 -10 22
-5 0 -10 -3 -10 -7z"/>
<path d="M4716 8692 c-3 -5 1 -15 9 -22 16 -14 20 -3 6 19 -5 8 -11 9 -15 3z"/>
<path d="M5637 8645 c-8 -8 -17 -12 -19 -9 -3 2 -10 -8 -17 -23 -12 -27 -12
-27 6 -10 23 20 36 12 22 -14 -5 -11 -7 -19 -4 -19 3 0 1 -9 -5 -20 -12 -23 4
-56 32 -63 15 -4 17 -10 8 -31 -10 -28 -4 -59 11 -50 5 3 12 -2 16 -11 3 -10
0 -20 -6 -24 -16 -11 25 -91 46 -91 9 0 21 -7 27 -15 19 -26 73 -1 87 40 8 21
17 31 26 28 7 -3 13 2 13 11 0 9 -4 16 -10 16 -5 0 -10 8 -10 18 0 10 -11 29
-25 42 -14 13 -25 29 -25 35 0 6 -16 26 -35 45 -19 19 -35 40 -35 47 0 19 -39
75 -66 96 -20 15 -24 15 -37 2z m53 -49 c0 -21 -17 -29 -37 -17 -17 10 -17 10
0 11 9 0 17 5 17 10 0 6 5 10 10 10 6 0 10 -6 10 -14z m130 -296 c0 -5 -5 -10
-11 -10 -5 0 -7 5 -4 10 3 6 8 10 11 10 2 0 4 -4 4 -10z"/>
<path d="M4583 8611 c-3 -11 -12 -22 -22 -24 -14 -4 -14 -5 2 -6 9 0 17 -5 17
-11 0 -12 10 -13 29 -1 12 8 12 12 2 25 -7 8 -10 20 -6 26 3 5 1 10 -5 10 -7
0 -14 -9 -17 -19z"/>
<path d="M4900 8614 c0 -7 8 -10 20 -7 11 3 20 8 20 12 0 4 -9 7 -20 7 -11 0
-20 -6 -20 -12z"/>
<path d="M5030 8616 c0 -2 8 -10 18 -17 15 -13 16 -12 3 4 -13 16 -21 21 -21
13z"/>
<path d="M4480 8566 c0 -23 -3 -27 -12 -18 -7 7 -15 12 -19 12 -10 0 -5 -34 6
-42 6 -5 4 -8 -5 -8 -10 0 -7 -5 7 -15 20 -14 24 -14 41 3 10 10 21 26 25 35
3 9 14 17 24 17 26 0 1 21 -28 23 -13 0 -27 6 -31 12 -4 5 -8 -3 -8 -19z"/>
<path d="M5040 8560 c-8 -5 -12 -11 -9 -14 2 -3 11 -1 19 4 8 5 12 11 9 14 -2
3 -11 1 -19 -4z"/>
<path d="M5590 8550 c0 -5 5 -10 10 -10 6 0 10 5 10 10 0 6 -4 10 -10 10 -5 0
-10 -4 -10 -10z"/>
<path d="M4565 8530 c-3 -5 -1 -10 4 -10 6 0 11 5 11 10 0 6 -2 10 -4 10 -3 0
-8 -4 -11 -10z"/>
<path d="M5580 8335 c0 -8 5 -15 10 -15 6 0 10 7 10 15 0 8 -4 15 -10 15 -5 0
-10 -7 -10 -15z"/>
<path d="M4260 8260 c0 -5 5 -10 11 -10 5 0 7 5 4 10 -3 6 -8 10 -11 10 -2 0
-4 -4 -4 -10z"/>
<path d="M5715 8260 c-3 -5 -1 -10 4 -10 6 0 11 5 11 10 0 6 -2 10 -4 10 -3 0
-8 -4 -11 -10z"/>
<path d="M4202 8217 c-12 -15 -10 -58 3 -56 6 0 9 5 8 10 -2 5 2 9 7 9 12 0
13 37 1 44 -5 3 -13 0 -19 -7z"/>
<path d="M4255 8089 c-10 -15 1 -23 20 -15 9 3 13 10 10 16 -8 13 -22 13 -30
-1z"/>
<path d="M4320 8050 c0 -5 5 -10 10 -10 6 0 10 5 10 10 0 6 -4 10 -10 10 -5 0
-10 -4 -10 -10z"/>
<path d="M4275 7980 c3 -5 8 -10 11 -10 2 0 4 5 4 10 0 6 -5 10 -11 10 -5 0
-7 -4 -4 -10z"/>
<path d="M5880 7980 c-12 -7 -10 -9 8 -7 12 0 22 5 22 9 0 11 -12 10 -30 -2z"/>
<path d="M4280 7952 c1 -19 34 -47 55 -47 29 -1 30 1 10 21 -8 9 -19 12 -25 9
-5 -3 -10 -2 -10 3 0 6 -7 12 -15 16 -8 3 -15 2 -15 -2z"/>
<path d="M4305 7830 c-3 -5 -1 -10 4 -10 6 0 11 5 11 10 0 6 -2 10 -4 10 -3 0
-8 -4 -11 -10z"/>
<path d="M4840 7800 c-13 -24 -28 -25 -50 -5 -15 14 -20 12 -55 -21 -61 -57
-47 -63 190 -79 102 -6 134 -36 38 -34 -105 2 -233 -43 -233 -81 0 -13 43 -30
73 -30 12 0 35 -7 51 -15 33 -17 63 -19 68 -5 2 7 14 7 37 -1 24 -9 29 -14 19
-20 -11 -8 -11 -10 1 -18 20 -13 4 -31 -29 -31 -42 0 -45 -17 -5 -30 35 -12
152 -15 214 -6 38 6 81 31 81 47 0 7 9 9 21 6 27 -7 69 19 69 44 0 10 8 24 18
31 34 24 45 56 32 89 -7 16 -18 29 -25 29 -7 0 -36 13 -66 28 -30 16 -81 36
-114 46 -33 10 -80 28 -105 39 -26 12 -69 21 -100 22 -30 1 -69 5 -87 9 -26 5
-34 2 -43 -14z m270 -271 c0 -5 -11 -9 -25 -9 -27 0 -32 9 -13 28 12 12 38 -1
38 -19z"/>
<path d="M3986 7755 c-9 -19 -19 -59 -21 -88 l-4 -52 9 43 c10 47 37 83 49 64
6 -11 53 -8 73 4 4 3 27 -13 50 -36 53 -52 62 -34 13 25 -42 51 -81 75 -123
75 -24 0 -33 -7 -46 -35z"/>
<path d="M4199 7779 c-11 -6 -8 -14 12 -36 36 -39 68 -99 77 -141 4 -20 13
-37 19 -39 16 -6 22 77 6 93 -7 7 -11 19 -8 26 4 9 -5 19 -21 27 -18 8 -25 17
-22 29 6 22 -43 54 -63 41z"/>
<path d="M5650 7622 c-27 -14 -50 -29 -50 -34 0 -4 -7 -8 -15 -8 -8 0 -15 9
-15 20 0 31 -38 26 -51 -6 -7 -20 -6 -38 5 -68 12 -36 19 -75 43 -231 9 -63
33 -127 58 -156 29 -36 30 -34 9 27 -9 26 -14 57 -11 70 2 13 1 24 -3 24 -4 0
-10 9 -13 19 -7 30 23 31 74 5 24 -13 51 -24 61 -24 9 0 20 -4 23 -10 3 -5 15
-10 25 -10 10 0 24 -8 29 -17 8 -14 13 -15 19 -5 7 10 14 8 34 -8 38 -29 51
-25 71 23 24 59 21 108 -8 164 -25 45 -25 48 -8 61 16 12 18 10 21 -13 3 -25
5 -24 28 19 29 55 31 100 4 143 -25 41 -52 48 -139 33 -47 -8 -80 -8 -105 -2
-30 9 -43 6 -86 -16z"/>
<path d="M4147 7566 c-54 -33 -87 -66 -103 -105 -16 -38 -15 -45 4 -25 7 8 9
14 5 14 -21 0 54 31 85 34 46 6 54 16 50 64 l-3 41 -38 -23z"/>
<path d="M4286 7553 c-9 -9 -7 -33 3 -33 12 0 22 28 12 34 -5 3 -11 3 -15 -1z"/>
<path d="M4938 7503 c7 -3 16 -2 19 1 4 3 -2 6 -13 5 -11 0 -14 -3 -6 -6z"/>
<path d="M5140 7202 c0 -7 -8 -12 -19 -12 -30 0 -89 -29 -158 -77 -17 -13 -34
-23 -38 -23 -15 0 -105 -66 -105 -76 0 -7 -6 -14 -13 -17 -7 -2 -13 -16 -15
-30 -1 -15 -2 -30 -3 -34 -1 -4 1 -16 6 -27 5 -11 3 -21 -4 -25 -7 -5 -11 -30
-11 -62 1 -30 -1 -64 -4 -76 -10 -45 24 -34 97 31 21 20 48 20 94 1 19 -8 37
-15 39 -15 2 0 10 16 19 36 13 31 17 34 35 24 11 -6 20 -15 20 -20 0 -6 5 -10
10 -10 6 0 10 6 10 14 0 30 69 36 77 6 6 -24 10 -25 29 -5 22 22 40 19 62 -10
12 -15 23 -21 27 -15 11 18 55 11 80 -14 14 -14 27 -20 30 -15 11 17 53 10 60
-11 4 -12 14 -19 23 -18 18 3 28 -24 16 -50 -4 -9 -6 -20 -6 -24 1 -5 -2 -8
-8 -8 -5 0 -10 4 -10 9 0 5 -33 12 -72 16 -40 4 -84 12 -98 18 -14 6 -41 12
-60 14 -19 2 -39 8 -44 13 -12 12 -26 13 -26 3 0 -12 51 -33 77 -33 13 0 23
-4 23 -9 0 -12 31 -18 149 -31 51 -6 103 -17 114 -25 12 -8 16 -15 9 -15 -7 0
-10 -4 -7 -10 8 -12 -27 0 -36 12 -3 5 -22 0 -42 -11 -26 -14 -37 -17 -41 -8
-3 8 -11 5 -23 -8 -20 -24 -53 -39 -53 -25 0 14 -74 -1 -86 -18 -9 -12 -21
-13 -69 -4 -42 7 -64 6 -77 -2 -22 -13 -24 -42 -3 -50 11 -4 15 -21 15 -60 l0
-55 33 6 c17 3 34 8 36 10 8 6 51 -40 51 -54 0 -7 5 -13 11 -13 6 0 9 -9 6
-20 -6 -24 6 -26 27 -4 18 18 66 26 85 15 7 -5 15 -26 18 -47 4 -32 1 -41 -16
-52 -19 -11 -21 -10 -22 15 0 26 -1 26 -9 7 -11 -28 -43 -36 -70 -17 -12 9
-32 16 -45 16 -15 0 -25 7 -28 19 -5 16 -9 18 -26 8 -12 -6 -21 -7 -21 -2 0 5
-11 7 -25 4 -14 -2 -25 -9 -25 -15 0 -5 -9 0 -20 13 -11 13 -20 18 -20 12 0
-6 -17 -11 -39 -10 -22 0 -44 -3 -50 -6 -7 -5 -9 -1 -5 8 3 9 2 16 -3 16 -11
0 -114 102 -153 150 -14 17 -35 42 -46 55 -12 13 -19 27 -15 31 3 4 -4 2 -15
-4 -17 -9 -22 -9 -21 1 1 32 -4 48 -13 42 -15 -9 -12 6 4 24 24 26 28 72 8 88
-16 14 -16 14 1 9 23 -7 22 16 -2 34 -11 7 -18 17 -15 22 3 4 0 8 -7 8 -6 0
-9 8 -6 19 2 10 1 25 -4 32 -8 11 -12 10 -24 -6 -17 -21 -14 -42 4 -37 17 3
13 -60 -5 -86 -8 -12 -11 -22 -6 -22 4 0 17 -7 28 -15 17 -14 18 -15 0 -9 -11
4 -22 1 -27 -7 -8 -12 -10 -12 -19 1 -11 18 -52 22 -63 6 -6 -7 -7 -5 -4 6 7
22 -2 29 -23 18 -13 -7 -20 -6 -24 6 -3 9 -2 12 4 9 11 -7 40 18 40 35 0 7 -6
8 -19 0 -24 -12 -42 7 -20 21 8 5 9 9 3 9 -6 0 -17 -7 -24 -15 -7 -8 -9 -15
-6 -15 4 0 1 -6 -6 -14 -15 -16 -32 -10 -24 10 3 8 0 11 -10 7 -9 -3 -14 1
-14 13 0 10 -18 35 -40 56 -44 40 -56 35 -48 -22 2 -16 0 -26 -5 -23 -5 3 -7
23 -5 44 3 31 0 39 -13 39 -10 0 -20 6 -22 13 -3 7 -6 5 -6 -5 -1 -10 3 -18 8
-18 4 0 8 -18 8 -40 0 -22 5 -45 10 -52 6 -7 14 -23 17 -35 6 -19 3 -23 -13
-23 -17 0 -21 -6 -21 -34 0 -19 -5 -36 -11 -38 -8 -3 -8 -10 2 -26 16 -26 27
-28 25 -6 0 9 5 19 13 22 10 3 12 0 7 -13 -3 -10 -1 -24 6 -32 10 -12 9 -17
-6 -25 -13 -8 -15 -13 -5 -24 6 -8 18 -14 25 -14 8 0 14 -7 14 -16 0 -8 4 -13
8 -10 14 9 52 -51 46 -71 -5 -14 -4 -15 4 -4 8 11 12 10 21 -8 7 -12 9 -26 6
-31 -3 -5 0 -8 7 -5 8 3 22 -13 36 -45 13 -27 29 -50 35 -50 7 0 20 -13 30
-29 9 -16 34 -40 55 -52 20 -13 44 -30 52 -39 8 -9 32 -26 53 -39 20 -12 37
-26 37 -30 0 -3 15 -12 33 -20 28 -11 30 -14 13 -20 -17 -7 -15 -10 18 -30 20
-13 35 -26 32 -29 -3 -2 12 -14 34 -24 22 -11 38 -24 35 -29 -3 -4 3 -14 15
-21 11 -7 20 -17 20 -21 0 -14 44 -46 63 -47 10 0 15 -4 12 -10 -3 -5 1 -10
10 -10 9 0 13 5 10 10 -3 6 -1 10 4 10 6 0 11 -7 11 -16 0 -8 5 -12 10 -9 6 3
10 -1 10 -9 0 -9 6 -16 14 -16 7 0 19 -7 26 -15 7 -8 16 -13 20 -10 5 3 11 1
15 -5 3 -5 14 -10 24 -10 10 0 24 -6 30 -14 11 -13 20 -10 62 15 27 16 54 29
60 29 6 0 8 4 4 9 -3 5 -1 12 5 16 5 3 10 1 10 -5 0 -6 4 -9 10 -5 5 3 7 12 3
20 -3 8 -1 15 5 15 6 0 24 19 42 43 17 23 33 41 35 40 14 -8 18 -1 5 7 -13 8
-12 10 3 10 14 0 16 4 7 19 -7 14 -7 22 1 26 6 4 8 13 5 21 -3 7 -1 16 4 19 4
3 13 28 19 56 12 52 113 216 220 352 38 49 141 241 141 264 0 3 6 19 14 36 43
94 50 185 10 128 -8 -12 -19 -21 -25 -21 -15 0 -10 28 7 38 10 6 18 30 23 70
l7 61 -25 -5 c-14 -3 -39 -10 -55 -15 -36 -11 -39 -11 -31 1 3 6 -1 10 -9 10
-9 0 -16 7 -16 16 0 8 -4 13 -9 10 -8 -6 -31 14 -28 24 3 7 -77 129 -84 129
-4 1 -9 -12 -12 -28 -3 -16 -13 -31 -22 -35 -9 -3 -13 -2 -10 4 5 9 -2 12 -25
12 -3 1 -17 -2 -32 -6 -21 -5 -28 -3 -28 8 0 9 -6 14 -12 12 -7 -3 -28 -7 -45
-10 -28 -5 -33 -3 -33 14 0 12 -7 20 -17 20 -13 0 -14 -3 -5 -12 7 -7 12 -19
12 -27 0 -10 -8 -4 -20 14 -21 32 -25 33 -135 36 -38 0 -80 5 -93 10 -20 8
-21 6 -13 -9 6 -9 26 -34 45 -54 22 -24 29 -38 20 -38 -7 0 -14 -5 -14 -11 0
-5 -5 -7 -10 -4 -6 3 -12 0 -15 -7 -4 -10 -30 -13 -108 -12 -56 1 -105 2 -109
3 -5 1 -8 10 -8 21 0 22 55 83 107 119 36 24 78 79 69 88 -3 4 -6 1 -6 -5z
m262 -224 c-13 -13 -44 3 -38 19 3 8 6 27 6 41 1 25 2 24 20 -12 11 -22 16
-44 12 -48z m-108 33 c3 -5 -1 -11 -9 -15 -9 -3 -15 0 -15 9 0 16 16 20 24 6z
m216 -56 c0 -21 -19 -28 -36 -15 -10 9 -11 16 -3 26 12 15 39 8 39 -11z m-427
-72 c-7 -2 -19 -2 -25 0 -7 3 -2 5 12 5 14 0 19 -2 13 -5z m-407 -129 c-4 -9
-9 -15 -11 -12 -3 3 -3 13 1 22 4 9 9 15 11 12 3 -3 3 -13 -1 -22z m1214 -10
c0 -7 -27 -34 -34 -34 -4 0 -1 9 6 20 12 19 28 27 28 14z m-348 -66 c-6 -6
-14 -9 -17 -6 -3 3 -3 13 1 22 5 12 10 14 17 7 8 -8 8 -14 -1 -23z m308 16 c0
-2 -7 -4 -15 -4 -8 0 -15 4 -15 10 0 5 7 7 15 4 8 -4 15 -8 15 -10z m-1420
-14 c0 -5 -4 -10 -10 -10 -5 0 -10 5 -10 10 0 6 5 10 10 10 6 0 10 -4 10 -10z
m1409 -38 c-6 -18 -15 -32 -20 -32 -5 0 -1 16 8 35 20 42 27 40 12 -3z m-50 7
c-16 -10 -23 -4 -14 10 3 6 11 8 17 5 6 -4 5 -9 -3 -15z m-29 -36 c-12 -8 -24
-12 -27 -9 -4 3 -1 6 5 6 7 0 11 3 11 8 -3 17 2 21 16 15 13 -5 12 -8 -5 -20z
m-1373 -9 c-9 -9 -28 6 -21 18 4 6 10 6 17 -1 6 -6 8 -13 4 -17z m273 -44 c0
-5 7 -7 16 -3 11 4 15 2 13 -6 -3 -7 -9 -13 -14 -13 -6 0 -20 -4 -32 -9 -23
-9 -33 4 -13 16 6 4 8 11 5 16 -4 5 1 9 9 9 9 0 16 -4 16 -10z m915 -34 c-19
-28 -31 -32 -55 -16 -13 9 -12 12 5 23 22 13 58 25 63 21 2 -1 -4 -14 -13 -28z
m105 -12 c0 -28 -15 -25 -23 6 -3 13 0 20 9 20 8 0 14 -10 14 -26z m-1220 -36
c0 -23 -16 -16 -23 11 -3 14 -1 18 9 14 8 -3 14 -14 14 -25z m1200 -27 c0 -22
-6 -31 -30 -41 -17 -7 -34 -19 -38 -27 -5 -8 -15 -11 -25 -7 -14 5 -14 8 -2
20 7 8 19 14 25 14 6 0 9 4 6 9 -7 10 38 61 54 61 5 0 10 -13 10 -29z m-1280
9 c0 -5 -5 -10 -11 -10 -5 0 -7 5 -4 10 3 6 8 10 11 10 2 0 4 -4 4 -10z m387
-12 c-3 -8 -6 -5 -6 6 -1 11 2 17 5 13 3 -3 4 -12 1 -19z m-67 -8 c0 -5 -4
-10 -10 -10 -5 0 -10 5 -10 10 0 6 5 10 10 10 6 0 10 -4 10 -10z m-181 -40 c9
0 34 -51 27 -57 -11 -11 -45 23 -40 39 3 12 0 18 -10 18 -10 0 -13 -6 -10 -15
4 -9 0 -15 -10 -15 -22 0 -20 9 7 38 18 19 23 21 25 8 2 -9 7 -16 11 -16z
m-72 -12 c-3 -8 -6 -5 -6 6 -1 11 2 17 5 13 3 -3 4 -12 1 -19z m1113 -28 c13
-8 12 -10 -4 -10 -16 0 -17 -2 -5 -17 13 -17 13 -17 -6 -3 -11 8 -22 15 -24
17 -5 3 9 23 17 23 4 0 14 -5 22 -10z m-60 -360 c0 -5 -5 -10 -11 -10 -5 0 -7
5 -4 10 3 6 8 10 11 10 2 0 4 -4 4 -10z m-449 -218 c-7 -2 -18 1 -23 6 -8 8
-4 9 13 5 13 -4 18 -8 10 -11z"/>
<path d="M4158 7123 c6 -2 18 -2 25 0 6 3 1 5 -13 5 -14 0 -19 -2 -12 -5z"/>
<path d="M4240 7095 c0 -8 4 -15 10 -15 5 0 7 7 4 15 -4 8 -8 15 -10 15 -2 0
-4 -7 -4 -15z"/>
<path d="M4255 7050 c-3 -5 -1 -10 4 -10 6 0 11 5 11 10 0 6 -2 10 -4 10 -3 0
-8 -4 -11 -10z"/>
<path d="M4251 6951 c17 -30 26 -38 33 -30 8 8 7 13 -1 16 -7 3 -13 10 -13 16
0 7 -9 18 -21 25 -21 13 -21 13 2 -27z"/>
<path d="M4300 6971 c0 -11 5 -23 12 -27 7 -4 8 -3 4 4 -4 7 -2 12 3 12 6 0
11 -9 11 -21 0 -11 4 -18 9 -14 14 8 -8 65 -25 65 -8 0 -14 -9 -14 -19z"/>
<path d="M4311 6894 c0 -11 3 -14 6 -6 3 7 2 16 -1 19 -3 4 -6 -2 -5 -13z"/>
<path d="M5925 6899 c-4 -6 -5 -12 -2 -15 2 -3 7 2 10 11 7 17 1 20 -8 4z"/>
<path d="M4360 6875 c12 -15 30 -12 30 6 0 5 -10 9 -21 9 -18 0 -19 -2 -9 -15z"/>
<path d="M4347 6863 c-4 -3 -7 -11 -7 -17 0 -6 5 -5 12 2 6 6 9 14 7 17 -3 3
-9 2 -12 -2z"/>
<path d="M4362 6831 c4 -13 18 -16 19 -4 0 4 -5 9 -11 12 -7 2 -11 -2 -8 -8z"/>
<path d="M4887 6764 c-14 -15 -6 -34 14 -34 14 0 19 5 17 17 -3 18 -20 27 -31
17z"/>
<path d="M4270 6746 c0 -8 5 -18 10 -21 6 -4 8 -11 4 -16 -3 -6 6 -22 20 -36
14 -14 26 -21 26 -15 0 6 -6 17 -14 25 -8 8 -16 27 -18 42 -3 30 -28 48 -28
21z"/>
<path d="M5220 6595 c0 -17 88 -37 108 -25 14 8 13 9 -10 10 -15 0 -29 4 -32
9 -9 14 -66 19 -66 6z"/>
<path d="M2904 6426 c-18 -14 -18 -15 6 -24 30 -12 40 -7 40 19 0 23 -19 25
-46 5z"/>
<path d="M2825 6391 c-3 -6 3 -9 14 -8 11 0 17 5 15 9 -7 11 -22 10 -29 -1z"/>
<path d="M2724 6335 c-25 -27 -21 -34 26 -56 l35 -16 0 46 c0 39 -3 46 -20 48
-11 1 -30 -9 -41 -22z"/>
<path d="M2971 6313 c-2 -36 -12 -53 -42 -68 -43 -23 -68 -19 -80 11 -9 26
-10 26 -29 9 -19 -17 -18 -41 1 -30 5 4 9 0 9 -8 0 -8 14 -20 30 -27 28 -11
33 -11 50 8 11 11 32 23 49 27 37 8 45 27 27 68 -12 26 -15 28 -15 10z"/>
<path d="M4125 6240 c9 -30 34 -80 40 -80 4 0 -35 92 -43 100 -2 3 -1 -6 3
-20z"/>
<path d="M3937 6115 c-5 -61 -3 -118 3 -135 1 -3 2 -8 1 -12 0 -5 3 -8 7 -8 8
0 5 186 -2 215 -2 6 -5 -21 -9 -60z"/>
<path d="M4211 6083 c7 -12 15 -20 18 -17 3 2 -3 12 -13 22 -17 16 -18 16 -5
-5z"/>
<path d="M3047 5955 c4 -11 27 -51 52 -89 44 -67 57 -87 70 -112 3 -7 30 -47
60 -90 57 -84 55 -98 -10 -75 -17 6 -72 9 -122 7 -73 -2 -104 -8 -149 -29 -96
-43 -175 -133 -192 -217 -2 -14 -8 -39 -11 -56 -9 -41 19 -153 59 -234 31 -64
104 -180 112 -180 3 0 18 7 34 15 56 29 160 -3 216 -66 33 -38 131 -185 151
-229 10 -22 24 -40 32 -40 29 0 243 113 277 147 20 19 41 32 49 29 22 -8 146
56 140 72 -3 8 -49 80 -103 161 -54 80 -118 178 -141 218 -24 40 -53 82 -65
95 -12 13 -43 55 -68 93 -54 83 -144 216 -156 230 -4 6 -23 36 -41 67 -18 32
-36 60 -41 63 -4 3 -18 24 -29 48 -12 23 -40 68 -63 99 -24 31 -48 65 -55 75
-12 17 -12 17 -6 -2z m3 -468 c0 -5 7 -6 16 -3 11 4 14 1 9 -13 -8 -26 20 -48
40 -31 19 16 19 0 0 -26 -9 -12 -14 -14 -15 -6 0 7 -5 10 -10 7 -6 -4 -17 -1
-25 5 -12 10 -19 10 -31 -1 -15 -12 -16 -11 -9 10 5 18 4 22 -6 15 -12 -6 -12
-5 -1 8 10 13 9 16 -8 21 -21 5 -28 27 -9 27 5 0 7 -4 4 -10 -3 -5 1 -10 11
-10 12 0 15 6 11 27 -5 26 -4 26 9 8 8 -10 14 -23 14 -28z m231 18 c0 -13 -41
-19 -41 -7 0 11 20 22 33 18 5 -1 8 -6 8 -11z m-180 -48 c-13 -13 -26 -3 -16
12 3 6 11 8 17 5 6 -4 6 -10 -1 -17z m62 -41 c4 -10 0 -12 -14 -9 -10 3 -16 9
-13 14 8 13 21 11 27 -5z"/>
<path d="M3950 5925 c-1 -5 -3 -21 -3 -35 -1 -16 -9 -26 -21 -28 -11 -2 -37
-23 -58 -46 -85 -92 -101 -106 -122 -106 -8 0 -18 -5 -21 -10 -4 -6 -29 -22
-56 -36 -27 -13 -48 -28 -45 -32 17 -27 -138 22 -202 64 -35 23 -38 10 -6 -34
40 -55 73 -72 121 -61 49 11 53 11 53 -1 0 -5 -4 -10 -9 -10 -5 0 -22 -5 -37
-10 l-27 -11 45 -47 c57 -60 90 -104 172 -227 71 -109 94 -141 177 -255 31
-41 77 -108 103 -147 26 -40 51 -73 56 -73 10 0 109 20 126 25 7 2 1 39 -17
112 -16 59 -35 143 -43 185 -8 43 -20 86 -25 97 -6 10 -15 61 -21 112 -6 51
-15 98 -20 104 -5 6 -13 29 -19 50 -5 22 -21 67 -35 100 -15 37 -32 112 -44
195 -11 74 -21 131 -22 125z m-10 -155 c0 -5 -7 -10 -16 -10 -8 0 -12 5 -9 10
3 6 10 10 16 10 5 0 9 -4 9 -10z"/>
<path d="M5517 5826 c-3 -7 -9 -35 -12 -62 -4 -27 -14 -61 -22 -76 -9 -19 -10
-28 -2 -28 7 0 8 -7 4 -17 -4 -10 -14 -56 -22 -103 -8 -47 -25 -107 -39 -135
l-25 -50 38 37 c21 20 48 38 61 40 62 9 105 335 52 388 -24 24 -26 24 -33 6z
m43 -250 c0 -8 -7 -16 -15 -20 -12 -4 -13 -2 -2 14 14 24 17 25 17 6z"/>
<path d="M2910 5714 l-45 -14 45 5 c25 4 49 10 55 16 11 11 3 10 -55 -7z"/>
<path d="M2655 5700 c13 -6 -9 -9 -63 -9 -60 -1 -81 -4 -76 -12 5 -8 -1 -10
-18 -6 -15 4 -33 0 -47 -10 -16 -10 -25 -12 -30 -5 -4 7 -21 5 -50 -9 -24 -10
-51 -19 -61 -19 -32 0 -49 -11 -43 -27 4 -11 2 -14 -8 -11 -8 3 -26 -1 -40 -8
-19 -9 -37 -10 -69 -3 -24 5 -49 8 -57 5 -7 -3 -29 3 -48 14 -46 26 -53 25
-28 -2 22 -26 65 -99 61 -104 -2 -1 -21 13 -43 32 -47 40 -73 43 -105 9 -25
-27 -42 -32 -39 -12 3 24 -1 47 -9 47 -14 0 -76 -125 -83 -170 -5 -26 -3 -76
3 -117 21 -130 -9 -241 -101 -373 -35 -50 -101 -211 -101 -245 0 -8 -20 -44
-44 -80 -116 -168 -165 -274 -221 -470 -19 -66 -41 -141 -49 -167 l-15 -48 27
0 c22 1 35 13 77 76 60 92 143 170 193 184 53 14 137 13 151 -3 8 -11 -2 -20
-51 -43 -34 -16 -89 -51 -122 -77 -62 -50 -156 -135 -156 -142 0 -2 19 -6 43
-10 57 -10 149 -44 167 -62 13 -14 12 -15 -10 -10 -133 33 -248 32 -257 -3 -3
-10 -17 -21 -31 -25 -30 -7 -144 -120 -168 -166 l-16 -32 30 22 c47 33 134 71
165 71 25 0 27 -3 21 -22 -9 -32 -21 -45 -73 -81 -49 -34 -42 -46 16 -26 72
23 173 20 173 -6 0 -7 -6 -15 -12 -18 -7 -3 -52 -21 -100 -41 -128 -52 -352
-183 -375 -218 -4 -7 -8 -37 -9 -66 l-2 -52 40 45 c36 41 178 145 199 145 21
0 5 -17 -46 -48 -72 -43 -159 -124 -178 -164 -13 -28 -15 -101 -14 -503 l2
-470 658 0 c696 0 685 -1 670 44 -4 11 -3 13 5 6 5 -5 12 -19 14 -30 3 -20 12
-20 1171 -23 785 -1 1166 1 1162 8 -3 6 -129 194 -278 419 -368 554 -416 632
-433 694 -17 64 -44 127 -56 127 -4 0 -8 9 -8 19 0 14 5 18 19 14 11 -3 22
-10 24 -16 3 -7 34 -49 71 -95 36 -45 79 -108 96 -140 16 -31 45 -73 63 -93
17 -20 39 -49 48 -65 8 -16 23 -28 32 -28 8 1 18 -5 21 -13 3 -8 1 -11 -4 -8
-18 11 -10 -15 10 -35 11 -11 20 -24 20 -30 0 -5 6 -13 13 -17 7 -4 18 -19 25
-33 7 -14 10 -17 7 -7 -3 11 -1 16 6 11 6 -3 9 -15 6 -25 -5 -17 -3 -17 23 -4
19 10 31 11 35 5 4 -6 -9 -17 -27 -25 -25 -11 -28 -14 -12 -15 14 0 31 -16 51
-47 107 -168 215 -328 223 -331 14 -5 12 12 -2 26 -6 6 -10 14 -7 16 8 8 36
-19 44 -43 6 -20 4 -23 -9 -18 -24 9 -21 2 30 -74 26 -38 45 -72 42 -74 -3 -3
-13 11 -24 30 -10 19 -22 35 -25 35 -4 0 -22 21 -39 48 -20 29 -29 38 -25 22
4 -14 27 -52 50 -85 23 -33 50 -75 59 -92 9 -18 23 -33 31 -33 19 0 19 10 0
34 -8 11 -15 25 -15 30 0 6 10 -5 22 -24 l23 -35 3 28 c2 15 7 27 12 27 13 0
24 -46 16 -65 -3 -8 -1 -15 4 -15 6 0 10 18 10 39 0 35 -29 83 -252 417 -139
208 -275 410 -301 449 -69 100 -79 125 -60 148 9 9 21 17 27 17 6 0 55 -67
109 -148 81 -123 98 -143 103 -125 4 13 11 20 17 16 18 -11 2 19 -78 141 -87
135 -96 165 -67 223 35 67 97 93 173 73 79 -22 118 -87 104 -176 -5 -37 -13
-49 -43 -69 -20 -13 -54 -27 -74 -30 -21 -4 -38 -8 -38 -10 0 -21 69 -115 85
-115 8 0 16 -9 20 -19 11 -35 30 -42 53 -20 12 11 30 19 40 17 26 -4 26 26 1
143 -12 57 -24 124 -26 149 -2 25 -8 54 -13 65 -9 20 -37 150 -47 218 -4 26
-1 37 8 37 7 0 10 -3 6 -6 -3 -3 8 -20 24 -36 16 -17 29 -35 29 -40 0 -5 14
-21 32 -36 34 -29 91 -112 103 -152 4 -14 12 -28 18 -31 5 -4 10 -20 11 -37 0
-17 4 -28 7 -26 3 2 11 -7 17 -20 6 -14 19 -27 29 -30 10 -3 47 -48 82 -98 34
-51 75 -111 91 -133 15 -22 26 -43 24 -46 -2 -4 10 -21 28 -38 17 -17 27 -31
21 -31 -15 0 -22 -44 -10 -67 15 -27 15 -27 33 -8 17 17 19 16 41 -11 33 -41
103 -158 103 -172 0 -7 4 -12 10 -12 5 0 19 -19 31 -43 26 -50 111 -177 135
-201 9 -9 14 -25 11 -36 -4 -15 0 -20 14 -20 34 0 20 -29 -28 -57 -47 -27 -73
-47 -73 -56 0 -8 43 5 66 20 12 8 36 18 54 23 30 9 35 6 60 -22 23 -26 28 -28
33 -13 8 20 -2 65 -17 81 -16 16 -105 139 -148 203 -21 31 -38 65 -38 77 0 22
35 44 70 44 11 0 20 7 20 15 0 21 -15 19 -66 -11 -25 -15 -46 -25 -48 -23 -13
16 -536 809 -546 828 -7 13 -32 49 -56 78 -24 30 -55 75 -69 101 -14 26 -45
79 -70 117 -24 39 -44 73 -45 78 -1 21 33 1 82 -50 30 -32 68 -69 84 -83 16
-14 37 -36 46 -50 17 -25 17 -25 6 10 -6 19 -15 45 -19 58 -5 14 -5 22 2 22 5
0 12 -7 15 -15 4 -9 13 -13 23 -10 10 3 32 -10 57 -33 22 -21 48 -41 58 -45 9
-4 16 -12 15 -19 -8 -41 29 -107 116 -209 50 -59 75 -93 75 -103 0 -5 3 -6 7
-3 3 4 15 0 25 -10 42 -38 25 -11 -200 315 l-32 47 42 5 c44 6 88 25 88 38 0
5 -5 13 -12 20 -9 9 -9 18 0 37 11 25 11 26 -9 20 -12 -4 -19 -3 -16 2 3 5 0
22 -8 37 -8 14 -12 32 -10 39 2 7 -18 23 -48 37 -76 37 -76 36 -24 -12 26 -25
47 -49 47 -54 0 -5 -20 -10 -45 -10 -25 -1 -45 3 -45 8 0 6 -7 24 -15 42 -14
29 -19 32 -48 28 -18 -3 -43 -13 -56 -23 -27 -22 -52 -25 -47 -6 1 6 1 9 -1 5
-7 -11 -33 -10 -33 2 0 5 -17 12 -37 16 -46 8 -214 70 -222 81 -3 4 -12 8 -18
9 -29 2 -33 5 -48 34 -9 17 -23 30 -33 30 -15 -1 -15 -2 3 -16 19 -14 16 -15
-35 -13 -35 2 -60 8 -68 18 -12 14 -13 13 -9 -7 4 -18 3 -21 -8 -12 -10 8 -12
5 -12 -15 0 -14 3 -25 8 -25 5 0 19 -11 31 -25 12 -14 29 -25 37 -26 9 0 3 -5
-12 -9 -16 -5 -35 -6 -42 -4 -7 3 -16 1 -19 -5 -4 -7 -15 -7 -30 -1 -13 5 -27
6 -31 2 -3 -3 -10 0 -15 8 -7 11 -12 12 -20 4 -13 -13 -70 -6 -70 9 0 8 -3 8
-11 0 -6 -6 -18 -9 -27 -6 -11 5 -13 2 -8 -8 4 -8 1 -6 -7 3 -8 10 -17 15 -20
12 -3 -3 -20 1 -38 10 -24 12 -35 13 -45 5 -11 -9 -14 -8 -14 4 0 18 -70 38
-147 40 l-52 2 27 -28 c15 -16 48 -44 75 -64 52 -38 58 -56 25 -74 -13 -7 -27
-18 -31 -26 -7 -12 -11 -11 -24 4 -8 10 -12 13 -9 8 2 -6 1 -17 -4 -25 -7 -12
-12 -12 -22 -2 -9 9 -9 12 2 12 7 0 11 2 8 5 -9 9 -38 -7 -38 -21 0 -8 -3 -13
-7 -13 -20 3 -24 -2 -12 -17 10 -13 10 -17 0 -24 -9 -5 -11 -16 -6 -31 6 -20
2 -19 -23 11 -17 19 -39 51 -49 70 -10 19 -36 62 -59 95 -22 33 -48 74 -56 90
-8 17 -39 73 -68 125 -56 101 -180 367 -180 387 0 24 -22 24 -48 1 -33 -31
-94 -73 -105 -73 -4 0 -11 -5 -15 -10 -10 -15 -62 -36 -73 -30 -5 4 -9 2 -9
-3 0 -6 -8 -8 -18 -5 -13 3 -32 -12 -66 -51 -43 -50 -76 -71 -76 -47 0 10 -55
9 -66 -1 -4 -4 -18 -5 -31 -2 -15 4 -43 -3 -78 -21 -54 -26 -91 -71 -110 -132
-7 -26 -51 -79 -118 -145 -54 -53 -101 -68 -145 -49 -22 11 -28 10 -39 -5 -19
-26 -16 -64 5 -70 31 -9 65 -29 69 -39 3 -12 -60 -52 -174 -111 -58 -30 -72
-41 -69 -58 1 -11 8 -22 15 -24 9 -3 8 -9 -4 -22 -14 -16 -14 -18 0 -23 8 -4
15 -11 15 -16 0 -11 -31 -3 -40 9 -3 4 -16 11 -29 15 -19 6 -23 4 -18 -9 3 -8
2 -18 -3 -21 -6 -4 -10 -1 -10 4 0 7 -7 7 -21 -1 -18 -11 -23 -10 -40 11 -18
22 -19 25 -4 34 9 5 23 6 32 3 13 -5 13 -4 4 8 -9 11 -6 13 16 13 16 0 22 -2
15 -4 -6 -3 -10 -8 -7 -13 7 -11 45 -1 45 12 0 5 -4 6 -10 3 -6 -3 -10 5 -10
19 0 14 -4 27 -10 31 -5 3 -6 13 -3 22 5 11 0 10 -16 -6 -12 -12 -19 -27 -15
-34 4 -7 4 -9 -1 -5 -5 5 -14 -1 -22 -12 -8 -11 -19 -20 -24 -20 -11 0 -23 -9
-90 -69 -27 -24 -49 -51 -49 -61 0 -9 -3 -19 -6 -23 -8 -8 -35 3 -29 13 3 5
-4 6 -14 3 -11 -3 -28 4 -40 16 -12 12 -24 21 -27 21 -17 0 -77 -58 -119 -115
-26 -36 -55 -65 -64 -65 -9 0 -23 -6 -30 -12 -11 -11 -12 -10 -6 2 7 12 6 13
-6 3 -8 -6 -28 -13 -44 -15 -17 -3 -48 -12 -69 -21 -22 -10 -41 -16 -43 -14
-2 2 -26 -18 -53 -45 -27 -27 -65 -55 -83 -63 -19 -8 -42 -26 -52 -41 -15 -24
-19 -25 -27 -10 -13 24 44 130 117 216 50 59 73 77 135 107 41 19 86 46 100
58 38 36 93 55 161 55 57 0 68 4 138 49 101 64 139 83 152 75 6 -3 39 21 73
54 33 33 102 86 151 117 50 32 107 73 128 91 34 32 42 34 105 34 83 0 93 9
145 123 58 126 80 146 297 272 193 113 270 163 270 178 0 7 -9 23 -20 35 -12
12 -18 22 -15 22 3 0 -2 11 -11 25 -16 24 -16 27 2 39 17 13 16 14 -9 9 -19
-4 -29 -1 -33 11 -9 23 -27 20 -19 -4 11 -34 -2 -23 -35 31 -26 43 -52 141
-41 158 2 2 -3 8 -11 12 -10 7 -10 9 0 9 10 0 10 5 2 20 -6 11 -16 20 -22 20
-37 0 -147 198 -174 315 -21 91 -26 134 -18 147 4 6 8 35 10 63 3 82 98 244
158 269 40 18 77 53 70 69 -3 8 -35 12 -102 13 -59 1 -89 -1 -77 -6z m-345
-128 c0 -4 -9 -8 -19 -8 -11 0 -17 4 -15 8 3 4 12 8 20 8 8 0 14 -4 14 -8z
m-207 -127 c4 -8 3 -16 -1 -19 -4 -3 -9 4 -9 15 -2 23 3 25 10 4z m495 -1500
c-3 -3 -9 2 -12 12 -6 14 -5 15 5 6 7 -7 10 -15 7 -18z m28 -32 c-13 -14 -25
9 -13 28 12 20 12 20 15 -1 2 -12 1 -24 -2 -27z m-66 -13 c0 -5 -2 -10 -4 -10
-3 0 -8 5 -11 10 -3 6 -1 10 4 10 6 0 11 -4 11 -10z m85 0 c-3 -5 -12 -10 -18
-10 -7 0 -6 4 3 10 19 12 23 12 15 0z m1765 -120 c-48 -38 -129 -80 -145 -74
-44 17 26 80 96 87 24 2 51 4 59 5 9 1 5 -6 -10 -18z m70 -29 c0 -13 -85 -61
-109 -61 -35 0 -24 14 32 41 57 29 77 34 77 20z m-257 -45 c9 -7 17 -18 17
-25 0 -12 -142 -106 -220 -146 -27 -13 -51 -29 -55 -35 -8 -14 -52 -13 -61 2
-7 11 -1 17 47 48 13 8 44 36 69 62 40 42 148 108 175 108 6 -1 18 -7 28 -14z
m-198 -16 c-3 -5 -12 -10 -18 -10 -7 0 -6 4 3 10 19 12 23 12 15 0z m225 -55
c-14 -17 -101 -67 -107 -61 -2 2 13 14 34 27 21 13 44 29 51 36 19 18 38 17
22 -2z m-1160 -77 c36 -25 54 -56 26 -45 -9 4 -23 4 -31 1 -13 -5 -13 -9 -3
-22 11 -13 10 -15 -12 -9 -14 4 -31 7 -37 7 -7 0 -13 5 -13 10 0 6 7 10 15 10
12 0 10 5 -5 20 -12 12 -25 18 -30 15 -5 -3 -11 -1 -14 4 -6 9 34 28 60 30 6
1 26 -9 44 -21z m987 -106 c-22 -24 -21 -33 1 -25 16 7 16 6 0 -11 -16 -15
-20 -16 -33 -2 -8 8 -15 19 -15 25 0 12 29 30 49 31 11 0 11 -4 -2 -18z
m-2097 -22 c0 -5 -5 -10 -11 -10 -5 0 -7 5 -4 10 3 6 8 10 11 10 2 0 4 -4 4
-10z m95 0 c-3 -5 -11 -10 -16 -10 -6 0 -7 5 -4 10 3 6 11 10 16 10 6 0 7 -4
4 -10z m883 -6 c33 -23 27 -29 -29 -31 -35 -2 -48 0 -43 8 5 8 -3 10 -26 7
l-34 -5 23 18 c28 23 79 24 109 3z m-918 2 c0 -11 -19 -15 -25 -6 -3 5 1 10 9
10 9 0 16 -2 16 -4z m1738 -28 c3 -17 -94 -85 -105 -74 -9 9 79 97 92 93 5 -2
11 -11 13 -19z m388 -73 c30 -41 54 -77 54 -81 0 -3 -9 -4 -20 -1 -13 3 -20 0
-20 -10 0 -25 -24 -9 -45 30 -25 46 -12 60 20 22 13 -17 24 -27 25 -24 0 4
-22 35 -50 69 -27 34 -47 66 -44 71 9 15 22 2 80 -76z m-1246 45 c12 -8 9 -10
-12 -10 -16 0 -28 5 -28 10 0 13 20 13 40 0z m-122 -46 c25 -17 30 -39 6 -30
-8 3 -12 2 -9 -4 4 -6 -11 -10 -37 -10 -31 0 -39 3 -28 10 20 13 -1 13 -34 0
-39 -14 -31 3 12 28 44 26 60 27 90 6z m-18 -64 c0 -5 -11 -10 -25 -10 -14 0
-25 5 -25 10 0 6 11 10 25 10 14 0 25 -4 25 -10z m-580 -10 c0 -5 -4 -10 -9
-10 -6 0 -13 5 -16 10 -3 6 1 10 9 10 9 0 16 -4 16 -10z m-10 -30 c0 -5 -7 -7
-15 -4 -8 4 -15 8 -15 10 0 2 7 4 15 4 8 0 15 -4 15 -10z m27 -7 c-12 -12 14
-31 35 -25 14 3 19 1 14 -6 -4 -7 -21 -12 -37 -12 -18 0 -28 4 -24 10 3 6 2
10 -4 10 -6 0 -8 7 -5 15 4 8 11 15 17 15 6 0 7 -3 4 -7z m454 -23 l24 -19
-25 -1 c-14 0 -32 -5 -40 -10 -13 -9 -13 -11 0 -20 12 -8 11 -10 -8 -10 -13 0
-20 4 -17 10 3 6 1 10 -5 10 -6 0 -8 5 -4 11 5 8 -3 10 -25 7 -38 -6 -40 6 -3
26 38 21 76 20 103 -4z m-1259 -62 c-7 -7 -12 -8 -12 -2 0 14 12 26 19 19 2
-3 -1 -11 -7 -17z m2068 -18 c0 -5 -2 -10 -4 -10 -3 0 -8 5 -11 10 -3 6 -1 10
4 10 6 0 11 -4 11 -10z m700 -330 c0 -5 -4 -10 -10 -10 -5 0 -10 5 -10 10 0 6
5 10 10 10 6 0 10 -4 10 -10z m-16 -45 c19 -29 20 -35 3 -35 -7 0 -21 14 -30
30 -15 25 -16 30 -4 30 8 0 22 -11 31 -25z"/>
<path d="M4832 5673 c2 -10 11 -19 21 -21 16 -3 17 -1 7 17 -13 25 -33 28 -28
4z"/>
<path d="M5185 5660 c3 -5 8 -10 11 -10 2 0 4 5 4 10 0 6 -5 10 -11 10 -5 0
-7 -4 -4 -10z"/>
<path d="M5205 5630 c3 -5 8 -10 11 -10 2 0 4 5 4 10 0 6 -5 10 -11 10 -5 0
-7 -4 -4 -10z"/>
<path d="M5240 5615 c0 -8 2 -15 4 -15 2 0 6 7 10 15 3 8 1 15 -4 15 -6 0 -10
-7 -10 -15z"/>
<path d="M4295 5580 c-3 -5 -1 -10 4 -10 6 0 11 5 11 10 0 6 -2 10 -4 10 -3 0
-8 -4 -11 -10z"/>
<path d="M1740 5555 c-6 -17 -14 -79 -17 -140 -5 -116 -20 -179 -58 -248 -31
-56 -107 -280 -139 -409 -35 -142 -44 -188 -40 -188 5 0 111 224 159 337 24
56 60 128 81 159 42 63 47 104 25 194 -11 48 -11 69 3 150 18 107 20 139 6
160 -7 11 -11 8 -20 -15z"/>
<path d="M4095 5440 c-3 -5 -2 -10 4 -10 5 0 13 5 16 10 3 6 2 10 -4 10 -5 0
-13 -4 -16 -10z"/>
<path d="M5843 5380 c-18 -31 -23 -55 -23 -117 l0 -78 -30 54 c-17 30 -32 56
-34 58 -1 2 -22 -5 -45 -15 -47 -22 -47 -24 25 -78 19 -15 44 -44 55 -64 12
-21 30 -41 40 -43 24 -6 25 -49 3 -71 -8 -9 -11 -16 -6 -16 16 0 129 -220 147
-286 9 -33 25 -82 35 -109 54 -149 167 -562 249 -905 75 -316 125 -700 137
-1048 6 -158 4 -186 -14 -257 -19 -75 -42 -205 -42 -239 0 -13 33 -15 249 -14
l248 1 12 46 c6 26 13 142 15 258 2 117 6 216 9 220 9 15 22 303 20 456 -1
131 -3 150 -19 162 -11 7 -22 11 -26 9 -24 -15 1 17 75 94 95 101 169 196 208
266 25 45 26 51 12 72 -15 24 -35 95 -83 300 -23 97 -29 146 -29 240 0 147
-38 386 -78 494 -4 9 -10 0 -18 -25 l-12 -40 -8 55 c-8 61 -31 119 -49 121 -6
1 -15 2 -21 3 -5 0 -26 17 -45 37 -42 43 -70 59 -104 59 -24 0 -98 36 -104 52
-2 4 -11 4 -20 1 -15 -6 -16 -5 -2 12 14 16 13 17 -8 11 -18 -6 -21 -4 -15 11
6 16 5 16 -10 5 -14 -12 -19 -12 -33 2 -8 9 -20 14 -25 10 -5 -3 -12 2 -15 10
-3 9 -12 16 -19 16 -16 0 -89 -69 -82 -77 4 -3 0 -18 -8 -33 -12 -23 -12 -36
-1 -83 13 -56 13 -56 -8 -45 -19 10 -20 10 -7 -5 7 -9 11 -26 8 -37 -3 -11 -1
-23 4 -26 5 -3 9 -12 9 -20 0 -9 -5 -12 -12 -8 -7 4 -8 3 -4 -5 4 -6 11 -9 16
-6 5 3 13 -3 19 -12 14 -24 14 -7 0 19 -6 11 -7 18 -1 14 9 -5 52 -89 52 -101
0 -2 -7 -2 -16 2 -8 3 -13 12 -9 21 5 13 3 13 -11 1 -10 -8 -12 -15 -5 -17 6
-2 11 -10 11 -18 0 -8 8 -14 18 -14 15 -1 15 -2 1 -13 -15 -11 -15 -42 0 -33
4 3 13 -5 21 -17 12 -20 12 -21 -3 -8 -10 8 -27 11 -43 7 -22 -6 -25 -11 -20
-32 5 -17 3 -23 -4 -19 -7 4 -7 -2 -1 -18 11 -29 4 -64 -13 -70 -7 -3 -26 5
-42 19 -16 13 -23 23 -17 24 9 0 6 12 -8 36 -21 38 -13 69 16 58 7 -3 16 0 21
7 5 9 2 10 -10 6 -11 -4 -19 -1 -23 11 -6 14 -8 13 -13 -8 -3 -14 -14 -26 -25
-28 -20 -4 -20 -3 0 12 l20 15 -20 1 c-18 1 -17 3 7 25 16 13 24 26 19 30 -5
3 -12 -1 -15 -7 -3 -9 -9 -7 -21 7 -9 11 -23 19 -32 17 -9 -2 -12 1 -8 8 4 7
16 10 26 7 12 -3 19 0 19 10 0 9 -6 13 -14 10 -22 -9 -50 17 -42 39 4 10 4 15
0 11 -13 -12 -34 15 -34 43 0 16 -7 30 -15 34 -8 3 -15 11 -15 17 0 8 5 7 18
-2 13 -10 12 -8 -3 10 -14 17 -16 25 -7 28 6 3 10 9 6 14 -3 5 4 9 15 9 23 0
36 16 21 25 -6 4 -17 1 -25 -5 -20 -16 -19 -5 1 25 10 15 12 25 5 25 -6 0 -11
-7 -11 -15 0 -8 -4 -15 -10 -15 -5 0 -10 8 -10 19 0 10 -7 24 -15 31 -8 7 -15
18 -15 24 0 7 -13 22 -30 34 -16 13 -30 29 -30 36 0 8 -5 16 -12 18 -6 2 -8
10 -4 16 5 9 13 7 31 -5 29 -21 32 -33 8 -33 -10 0 5 -14 34 -30 29 -17 56
-30 60 -30 4 0 0 5 -9 11 -22 12 -23 29 -3 29 8 0 15 5 15 11 0 5 4 8 10 4 5
-3 7 -12 3 -20 -3 -8 0 -15 7 -15 6 0 8 -4 5 -10 -3 -6 4 -10 17 -10 13 0 19
4 13 8 -5 4 -18 22 -28 41 -14 28 -15 36 -5 44 9 6 8 7 -6 3 -13 -5 -17 -2
-12 9 3 8 1 15 -5 15 -6 0 -8 4 -5 9 8 12 -13 28 -47 36 -16 4 -27 3 -27 -3 0
-6 8 -13 18 -15 14 -4 14 -5 1 -6 -9 0 -24 8 -34 19 -18 20 -17 20 19 20 24 0
35 4 30 11 -4 6 -21 8 -43 5 -34 -6 -35 -5 -17 9 18 14 18 15 2 15 -9 0 -14 5
-11 10 3 6 -3 10 -15 10 -12 0 -19 4 -16 8 3 5 -9 19 -27 32 -18 13 -47 41
-66 62 -18 21 -38 38 -45 38 -6 0 -21 -18 -33 -40z m67 -130 c0 -5 -2 -10 -4
-10 -3 0 -8 5 -11 10 -3 6 -1 10 4 10 6 0 11 -4 11 -10z m30 -30 c0 -5 -4 -10
-10 -10 -5 0 -10 5 -10 10 0 6 5 10 10 10 6 0 10 -4 10 -10z m20 -24 c0 -3 -4
-8 -10 -11 -5 -3 -10 -1 -10 4 0 6 5 11 10 11 6 0 10 -2 10 -4z m160 -78 c0
-6 -7 -5 -15 2 -8 7 -15 17 -15 22 0 6 7 5 15 -2 8 -7 15 -17 15 -22z m5 -28
c-3 -5 -10 -10 -16 -10 -5 0 -9 5 -9 10 0 6 7 10 16 10 8 0 12 -4 9 -10z m-25
-94 c0 -3 -4 -8 -10 -11 -5 -3 -10 -1 -10 4 0 6 5 11 10 11 6 0 10 -2 10 -4z
m275 -155 c3 -5 1 -12 -5 -16 -5 -3 -10 1 -10 9 0 18 6 21 15 7z m-131 -189
c2 -4 -4 -9 -15 -9 -11 -1 -17 2 -14 8 7 11 22 12 29 1z m162 -171 c-9 -8 -18
-12 -22 -9 -9 10 3 25 21 25 14 0 14 -2 1 -16z m-56 -76 c0 -5 -5 -3 -10 5 -5
8 -10 20 -10 25 0 6 5 3 10 -5 5 -8 10 -19 10 -25z m-3 -157 c-3 -8 -6 -5 -6
6 -1 11 2 17 5 13 3 -3 4 -12 1 -19z m283 -43 c5 -11 27 -60 50 -108 22 -49
40 -90 40 -92 0 -1 27 -54 60 -116 33 -62 58 -114 56 -117 -2 -2 -16 4 -31 14
-16 11 -24 23 -20 32 3 9 2 18 -3 21 -14 9 -142 292 -142 313 0 10 -5 18 -11
18 -6 0 -9 7 -5 15 3 8 1 15 -4 15 -6 0 -10 12 -9 28 0 15 3 20 6 12 2 -8 8
-24 13 -35z m-120 -365 c0 -5 -5 -10 -11 -10 -5 0 -7 5 -4 10 3 6 8 10 11 10
2 0 4 -4 4 -10z m30 -25 c0 -8 -4 -15 -10 -15 -5 0 -7 7 -4 15 4 8 8 15 10 15
2 0 4 -7 4 -15z m78 -105 c13 -21 6 -25 -18 -10 -9 6 -17 5 -22 -3 -5 -8 -8
-7 -8 5 0 14 11 24 30 27 3 1 11 -8 18 -19z m13 -54 c11 -23 15 -24 88 -21
l76 4 -70 -12 c-39 -7 -76 -16 -83 -21 -7 -4 -12 -1 -12 9 0 8 -11 21 -25 27
-19 9 -22 14 -14 25 17 19 28 16 40 -11z m174 -206 c3 -5 2 -10 -4 -10 -5 0
-13 5 -16 10 -3 6 -2 10 4 10 5 0 13 -4 16 -10z m-143 -178 c-16 -5 -16 -33 1
-29 6 1 11 -4 9 -11 -1 -8 2 -39 8 -70 7 -42 7 -58 -2 -63 -19 -12 -30 1 -16
18 11 14 10 15 -12 8 -23 -7 -23 -7 -6 11 18 17 18 18 0 31 -16 12 -17 15 -5
23 12 7 12 11 2 24 -7 9 -11 23 -7 31 3 9 2 13 -4 10 -6 -3 -10 0 -10 9 0 17
19 25 39 18 10 -4 11 -7 3 -10z m-26 -177 c10 -9 25 -13 39 -9 22 5 23 3 27
-53 2 -32 0 -59 -3 -61 -4 -2 -1 -15 6 -30 18 -38 30 -132 16 -132 -18 0 -32
35 -19 48 9 9 9 15 0 24 -9 9 -12 9 -13 -2 -1 -27 -21 35 -24 73 -2 29 1 37
12 33 11 -4 11 -1 2 15 -6 11 -13 18 -16 15 -6 -6 -33 18 -33 30 0 3 7 1 15
-6 12 -10 15 -10 15 3 0 9 -6 20 -12 24 -17 11 -42 43 -34 43 4 0 14 -7 22
-15z m59 -275 c3 -5 -1 -10 -10 -10 -9 0 -13 5 -10 10 3 6 8 10 10 10 2 0 7
-4 10 -10z m39 -57 c9 -57 7 -73 -7 -67 -7 2 -12 17 -11 32 0 15 -6 32 -14 38
-17 12 -9 34 12 34 8 0 16 -16 20 -37z m-57 -5 c-3 -8 -6 -5 -6 6 -1 11 2 17
5 13 3 -3 4 -12 1 -19z m62 -126 c1 -7 -3 -10 -9 -7 -5 3 -10 18 -9 33 0 24 1
25 9 7 5 -11 9 -26 9 -33z m-29 -2 c0 -5 -2 -10 -4 -10 -3 0 -8 5 -11 10 -3 6
-1 10 4 10 6 0 11 -4 11 -10z m20 -30 c0 -5 -4 -10 -9 -10 -6 0 -13 5 -16 10
-3 6 1 10 9 10 9 0 16 -4 16 -10z m-303 -272 c-3 -7 -5 -2 -5 12 0 14 2 19 5
13 2 -7 2 -19 0 -25z"/>
<path d="M6600 3660 c0 -5 5 -10 10 -10 6 0 10 5 10 10 0 6 -4 10 -10 10 -5 0
-10 -4 -10 -10z"/>
<path d="M6705 2780 c-3 -5 -1 -10 4 -10 6 0 11 5 11 10 0 6 -2 10 -4 10 -3 0
-8 -4 -11 -10z"/>
<path d="M5994 5369 c-16 -17 -16 -22 -4 -29 22 -14 37 -12 44 6 17 45 -7 59
-40 23z"/>
<path d="M5560 5315 c-7 -8 -9 -15 -6 -15 4 0 14 7 22 15 9 8 11 15 6 15 -5 0
-15 -7 -22 -15z"/>
<path d="M1626 5289 c-20 -66 -32 -168 -18 -154 11 10 34 156 27 164 -3 2 -6
-2 -9 -10z"/>
<path d="M2745 4890 c3 -5 8 -10 11 -10 2 0 4 5 4 10 0 6 -5 10 -11 10 -5 0
-7 -4 -4 -10z"/>
<path d="M6166 4878 c3 -4 9 -8 15 -8 5 0 9 4 9 8 0 5 -7 9 -15 9 -8 0 -12 -4
-9 -9z"/>
<path d="M2940 4800 c0 -22 12 -25 41 -9 25 13 16 29 -17 29 -17 0 -24 -5 -24
-20z"/>
<path d="M2988 4768 c-31 -47 -30 -64 2 -98 18 -20 30 -41 28 -54 -2 -15 2
-20 15 -18 9 2 17 -1 17 -6 0 -4 14 -27 31 -50 30 -42 31 -42 60 -26 40 20 45
38 20 73 -26 37 -28 59 -3 40 15 -13 16 -12 3 3 -7 10 -17 15 -21 13 -9 -6
-60 55 -60 71 0 13 -57 74 -68 74 -5 0 -16 -10 -24 -22z m29 -68 c3 -11 9 -20
14 -20 10 0 43 -60 36 -66 -7 -7 -77 78 -77 93 0 21 21 15 27 -7z m73 -120 c0
-5 -2 -10 -4 -10 -3 0 -8 5 -11 10 -3 6 -1 10 4 10 6 0 11 -4 11 -10z"/>
<path d="M4797 4710 c-15 -5 -35 -18 -45 -30 -15 -19 -27 -21 -123 -21 -59 0
-119 3 -135 7 l-29 6 35 -36 c39 -40 51 -43 265 -66 150 -16 153 -17 186 -52
25 -28 31 -30 54 -20 25 12 36 36 12 26 -9 -3 -14 4 -14 23 0 35 -40 103 -60
103 -12 0 -12 -2 1 -16 19 -19 21 -34 3 -34 -13 0 -95 74 -112 102 -7 12 -17
14 -38 8z"/>
<path d="M3180 4591 c5 -11 15 -23 21 -27 6 -3 3 5 -6 20 -20 30 -30 35 -15 7z"/>
<path d="M6294 4564 c3 -9 6 -22 6 -30 0 -9 5 -12 10 -9 6 4 8 16 5 28 -2 12
-2 16 1 9 3 -6 10 -10 15 -6 14 9 0 24 -23 24 -14 0 -18 -5 -14 -16z"/>
<path d="M3224 4539 c-3 -5 -2 -9 3 -9 4 0 19 -3 32 -7 16 -4 22 -2 18 4 -9
15 -46 23 -53 12z"/>
<path d="M6316 4504 c-9 -24 -7 -27 9 -10 17 17 19 26 6 26 -5 0 -12 -7 -15
-16z"/>
<path d="M6346 4504 c-4 -9 -4 -19 -1 -22 2 -3 7 3 11 12 4 9 4 19 1 22 -2 3
-7 -3 -11 -12z"/>
<path d="M4434 4465 c-4 -8 -15 -15 -25 -15 -10 0 -19 -5 -19 -11 0 -7 -10 -9
-25 -7 -14 3 -25 1 -25 -3 0 -5 5 -9 10 -9 6 0 10 -7 10 -15 0 -8 3 -16 8 -16
53 -9 132 3 132 20 0 5 15 12 33 16 28 7 29 9 9 12 -20 4 -21 7 -10 21 11 13
10 15 -9 10 -13 -4 -26 -2 -29 3 -9 15 -54 10 -60 -6z"/>
<path d="M4940 4425 c-14 -8 -35 -14 -46 -15 -12 0 -27 -7 -34 -15 -10 -12
-25 -14 -69 -9 -31 3 -74 7 -96 8 -22 1 -49 7 -59 13 -20 11 -56 6 -56 -8 0
-5 -9 -9 -20 -9 -30 0 -24 -13 19 -41 33 -21 60 -28 161 -37 67 -7 136 -18
154 -26 33 -14 158 -104 164 -118 2 -5 9 -8 17 -8 24 0 34 136 13 187 -11 26
-12 27 -15 6 -3 -15 -9 -20 -20 -16 -12 5 -14 3 -8 -7 6 -9 4 -11 -4 -5 -7 4
-11 15 -8 24 3 14 -1 17 -20 13 -18 -3 -22 -1 -17 12 9 22 -4 66 -19 66 -6 -1
-23 -7 -37 -15z"/>
<path d="M4935 4180 c-11 -4 -25 -5 -31 -3 -6 2 -14 -5 -16 -15 -4 -15 -12
-19 -32 -15 -17 4 -26 1 -26 -7 0 -15 -130 -7 -139 9 -4 5 -20 9 -37 9 -17 -1
-38 3 -47 8 -8 5 -55 7 -102 4 -48 -3 -89 -2 -91 2 -6 9 -34 -2 -34 -13 0 -5
10 -9 23 -9 12 0 28 -9 35 -20 7 -11 19 -20 28 -20 8 0 30 -11 48 -25 18 -14
38 -25 44 -25 5 0 25 -18 42 -40 17 -22 38 -40 46 -40 8 0 17 -6 20 -14 6 -16
61 -42 70 -33 3 3 -2 16 -11 30 -15 24 -15 25 33 56 27 17 53 31 58 31 17 0
148 -72 174 -95 37 -33 64 -45 104 -45 38 0 66 21 66 51 0 12 -7 19 -20 19
-11 0 -20 5 -20 11 0 6 7 8 16 5 12 -5 15 -2 10 10 -3 8 -6 18 -6 20 0 3 -5 2
-12 -2 -6 -4 -9 -3 -6 2 3 5 2 19 -3 32 -9 24 -38 29 -58 10 -10 -11 -11 -10
-6 5 4 10 2 17 -4 17 -6 0 -11 -4 -11 -8 0 -4 -9 -8 -19 -9 -17 -1 -30 18 -35
52 -1 6 -9 22 -16 36 -12 20 -20 25 -35 19z m-235 -119 c0 -12 -21 -19 -37
-13 -22 8 -14 22 12 22 14 0 25 -4 25 -9z"/>
<path d="M3810 3900 c0 -5 5 -10 10 -10 6 0 10 5 10 10 0 6 -4 10 -10 10 -5 0
-10 -4 -10 -10z"/>
<path d="M4060 3876 c0 -2 7 -9 15 -16 13 -11 14 -10 9 4 -5 14 -24 23 -24 12z"/>
<path d="M4048 3843 c7 -3 16 -2 19 1 4 3 -2 6 -13 5 -11 0 -14 -3 -6 -6z"/>
<path d="M1198 3817 c-29 -24 -68 -99 -67 -132 l0 -20 15 20 c15 20 86 155 81
155 -1 0 -14 -10 -29 -23z"/>
<path d="M4800 3502 c0 -5 9 -17 20 -27 11 -10 20 -23 20 -29 0 -7 8 -19 18
-28 9 -8 35 -46 57 -83 22 -37 108 -171 190 -296 83 -126 179 -274 215 -329
65 -99 73 -109 85 -91 6 10 -44 100 -76 136 -9 11 -45 63 -80 115 -34 52 -82
120 -106 151 -23 30 -43 59 -43 64 0 7 -41 73 -176 282 -35 52 -41 69 -25 58
19 -11 19 11 0 35 -16 21 -19 22 -19 7 0 -15 -5 -13 -31 12 -30 31 -49 39 -49
23z"/>
<path d="M4379 3386 c-39 -22 -59 -60 -59 -109 0 -54 23 -86 80 -112 55 -25
103 -13 142 36 27 33 29 41 22 84 -10 70 -46 106 -110 111 -31 3 -58 -1 -75
-10z"/>
<path d="M4210 3196 c0 -2 8 -10 18 -17 15 -13 16 -12 3 4 -13 16 -21 21 -21
13z"/>
<path d="M4310 3051 c0 -6 4 -13 10 -16 6 -3 7 1 4 9 -7 18 -14 21 -14 7z"/>
<path d="M7190 3015 c-6 -14 -10 -42 -10 -62 0 -20 -9 -50 -19 -67 -10 -17
-25 -58 -31 -91 -7 -33 -21 -87 -32 -120 -21 -66 -128 -497 -128 -515 0 -13
523 -10 536 3 5 4 -7 35 -25 68 -27 50 -34 76 -40 147 -9 97 -29 148 -93 224
-36 43 -39 53 -43 116 -5 101 -64 298 -94 317 -6 3 -15 -5 -21 -20z m140 -655
c0 -5 -5 -10 -12 -10 -17 0 0 -13 20 -15 29 -2 62 -16 62 -25 0 -10 -36 -6
-73 9 -16 6 -42 11 -58 11 -41 0 -36 16 9 28 50 13 52 13 52 2z"/>
<path d="M4354 2983 c9 -17 21 -35 27 -39 13 -8 -1 21 -26 51 -15 19 -15 18
-1 -12z"/>
<path d="M4669 2987 c-8 -7 -31 -25 -49 -40 l-34 -29 18 -33 c10 -18 16 -37
13 -42 -3 -5 4 -21 17 -34 13 -14 36 -44 51 -67 15 -23 32 -42 37 -42 9 0 8
10 -29 159 -23 95 -24 104 -9 113 16 9 22 28 9 28 -5 0 -15 -6 -24 -13z"/>
<path d="M4455 2918 c14 -46 389 -616 410 -624 19 -8 19 -28 -1 -48 -14 -15
-14 -17 0 -22 20 -8 21 -34 2 -34 -8 0 -16 -6 -19 -12 -3 -9 6 -13 27 -13 27
0 31 4 34 29 5 41 -21 102 -96 224 -36 59 -58 101 -49 93 34 -28 15 8 -85 157
-92 137 -105 152 -126 147 -20 -5 -23 -3 -17 15 4 11 2 20 -4 20 -6 0 -11 6
-11 13 0 14 -52 77 -63 77 -5 0 -5 -10 -2 -22z"/>
<path d="M4400 2910 c6 -11 13 -20 16 -20 2 0 0 9 -6 20 -6 11 -13 20 -16 20
-2 0 0 -9 6 -20z"/>
<path d="M4436 2858 c36 -60 76 -118 80 -118 6 0 0 10 -54 93 -22 34 -44 54
-26 25z"/>
<path d="M4540 2704 c0 -13 18 -39 24 -34 2 3 -2 14 -10 24 -8 11 -14 16 -14
10z"/>
<path d="M5330 2612 c0 -12 19 -26 26 -19 2 2 -2 10 -11 17 -9 8 -15 8 -15 2z"/>
<path d="M4610 2595 c0 -3 8 -18 19 -33 10 -15 51 -78 91 -139 41 -62 77 -113
82 -113 4 0 -7 22 -25 49 -17 26 -61 92 -96 145 -58 89 -71 105 -71 91z"/>
<path d="M5442 2561 c-10 -6 -10 -10 3 -21 8 -7 18 -10 22 -6 3 3 1 6 -6 6 -8
0 -11 7 -7 15 6 17 6 18 -12 6z"/>
<path d="M5540 2385 c0 -8 64 -95 67 -91 6 5 -51 96 -59 96 -5 0 -8 -2 -8 -5z"/>
<path d="M5740 2301 c0 -6 5 -13 10 -16 6 -3 10 1 10 9 0 9 -4 16 -10 16 -5 0
-10 -4 -10 -9z"/>
<path d="M5610 2270 c0 -5 5 -10 10 -10 6 0 10 5 10 10 0 6 -4 10 -10 10 -5 0
-10 -4 -10 -10z"/>
<path d="M5780 2250 c0 -5 5 -10 11 -10 5 0 7 5 4 10 -3 6 -8 10 -11 10 -2 0
-4 -4 -4 -10z"/>
<path d="M5770 2221 c0 -5 7 -14 15 -21 16 -14 18 -10 9 14 -6 17 -24 22 -24
7z"/>
<path d="M4753 2173 c-18 -6 -16 -23 1 -23 17 0 30 16 19 23 -5 2 -14 2 -20 0z"/>
<path d="M5685 2160 c3 -5 8 -10 11 -10 2 0 4 5 4 10 0 6 -5 10 -11 10 -5 0
-7 -4 -4 -10z"/>
</g>
</svg>
