<?xml version="1.0" standalone="no"?>
<!DOCTYPE svg PUBLIC "-//W3C//DTD SVG 20010904//EN"
 "http://www.w3.org/TR/2001/REC-SVG-20010904/DTD/svg10.dtd">
<svg version="1.0" xmlns="http://www.w3.org/2000/svg"
 width="1200.000000pt" height="1200.000000pt" viewBox="0 0 1200.000000 1200.000000"
 preserveAspectRatio="xMidYMid meet">

<g transform="translate(0.000000,1200.000000) scale(0.100000,-0.100000)"
fill="#000000" stroke="none">
<path d="M6843 6430 c-141 -28 -221 -136 -246 -332 -13 -102 0 -222 33 -310
44 -118 144 -190 265 -191 194 -2 295 116 320 371 l7 62 -146 0 -146 0 0 -60
0 -60 85 0 c98 0 100 -2 61 -85 -41 -90 -103 -124 -204 -112 -38 4 -53 12 -84
45 -51 55 -72 129 -72 257 0 126 20 197 72 255 36 41 42 44 98 47 45 3 67 0
94 -15 44 -24 78 -74 86 -124 l7 -38 53 0 54 0 1 85 c0 47 1 101 1 120 0 79 3
75 -57 75 l-55 0 -1 -47 c0 -27 -3 -41 -6 -33 -12 33 -60 71 -107 85 -54 16
-53 16 -113 5z"/>
<path d="M1031 6010 l1 -410 259 0 259 0 0 60 0 60 -195 0 -195 0 0 120 0 120
155 0 155 0 0 60 0 60 -155 0 -155 0 0 110 0 110 195 0 195 0 0 60 0 60 -260
0 -259 0 0 -410z"/>
<path d="M5300 6360 l0 -60 65 0 65 0 0 -290 0 -290 -65 0 -65 0 0 -60 0 -60
195 0 195 0 0 60 0 60 -71 0 -71 0 4 350 3 350 -127 0 -128 0 0 -60z"/>
<path d="M9622 6343 l3 -78 70 0 70 0 3 78 3 77 -76 0 -76 0 3 -77z"/>
<path d="M1915 6193 c-28 -7 -56 -33 -71 -68 l-13 -30 -1 48 0 47 -65 0 -65 0
0 -295 0 -295 65 0 65 0 0 213 c0 229 6 259 50 265 46 7 50 -14 50 -255 l0
-223 60 0 60 0 0 143 c1 187 9 287 26 315 18 28 59 29 74 3 6 -12 10 -107 10
-240 l0 -221 60 0 60 0 0 245 c0 266 -5 298 -53 330 -60 39 -124 26 -163 -32
l-22 -33 -13 31 c-8 20 -25 37 -45 45 -35 15 -36 15 -69 7z"/>
<path d="M2612 6189 c-50 -8 -147 -43 -165 -59 -6 -6 21 -77 37 -97 1 -1 32 9
69 22 145 53 277 22 277 -64 0 -19 -6 -21 -57 -21 -154 -1 -299 -48 -344 -112
-53 -75 -24 -191 59 -237 84 -45 226 -29 302 36 l40 35 0 -46 0 -46 60 0 60 0
0 220 c0 236 -5 265 -51 310 -56 53 -178 78 -287 59z m202 -335 c27 -10 19
-53 -17 -89 -38 -38 -89 -55 -170 -55 -48 0 -62 4 -82 25 -14 13 -25 31 -25
38 0 24 35 60 71 73 35 13 196 18 223 8z"/>
<path d="M3403 6188 c-48 -10 -97 -55 -124 -113 l-19 -40 0 78 0 77 -65 0 -65
0 0 -295 0 -295 65 0 65 0 0 168 c0 164 1 170 28 222 31 62 74 90 139 90 30 0
50 -7 70 -24 l28 -24 3 -216 3 -216 60 0 59 0 0 213 c0 293 -16 340 -125 373
-54 16 -62 16 -122 2z"/>
<path d="M4719 6186 c-90 -19 -154 -68 -197 -151 -35 -68 -38 -196 -6 -266 25
-54 80 -111 132 -138 118 -60 296 -43 390 39 l24 20 -29 40 c-32 45 -36 47
-71 22 -66 -46 -185 -56 -259 -22 -40 18 -83 68 -83 98 0 9 56 12 246 12 l247
0 -7 53 c-15 119 -77 227 -155 266 -33 17 -138 42 -165 40 -6 0 -36 -6 -67
-13z m171 -129 c25 -13 51 -37 62 -57 l18 -35 -84 -3 c-47 -1 -126 -1 -176 0
l-90 3 18 35 c26 47 90 80 157 80 35 0 66 -8 95 -23z"/>
<path d="M7516 6190 c-56 -10 -164 -48 -172 -61 -3 -6 27 -80 40 -96 1 -1 32
9 69 22 143 52 277 22 277 -63 0 -17 -10 -20 -105 -25 -166 -11 -273 -56 -309
-132 -36 -74 -5 -167 70 -211 83 -49 226 -33 304 33 l40 35 0 -46 0 -46 60 0
60 0 0 220 c0 236 -5 265 -51 310 -55 52 -178 78 -283 60z m198 -336 c27 -10
19 -53 -17 -89 -38 -38 -89 -55 -170 -55 -48 0 -62 4 -82 25 -14 13 -25 31
-25 38 0 24 35 60 71 73 35 13 196 18 223 8z"/>
<path d="M8441 6190 c-77 -16 -122 -50 -163 -124 l-17 -31 -1 78 0 77 -130 0
-130 0 0 -55 0 -55 70 0 70 0 0 -180 0 -180 -70 0 -70 0 0 -60 0 -60 195 0
195 0 0 60 0 60 -65 0 -65 0 0 103 c0 91 3 109 26 155 21 43 34 56 80 78 46
22 63 26 116 22 35 -3 69 -7 77 -9 9 -3 22 15 36 51 21 50 22 56 7 61 -34 13
-118 17 -161 9z"/>
<path d="M8912 6189 c-218 -43 -298 -363 -130 -515 22 -20 56 -43 76 -51 123
-51 290 -31 380 47 l24 20 -29 40 c-32 45 -36 47 -71 22 -95 -66 -256 -51
-315 29 -42 58 -43 162 -3 221 35 52 70 71 133 75 90 6 149 -40 160 -127 l6
-40 53 0 54 0 0 140 0 140 -55 0 -55 0 0 -47 0 -48 -19 31 c-32 53 -123 81
-209 63z"/>
<path d="M10311 6189 c-48 -8 -171 -56 -171 -66 0 -3 40 -85 44 -90 1 -1 32 9
69 22 145 53 277 22 277 -64 0 -19 -6 -21 -57 -21 -188 -1 -320 -55 -359 -147
-31 -72 0 -157 72 -199 83 -49 226 -33 304 33 l40 35 0 -46 0 -46 60 0 60 0 0
220 c0 236 -5 265 -51 310 -56 53 -178 78 -288 59z m203 -335 c27 -10 19 -53
-17 -89 -38 -38 -89 -55 -170 -55 -48 0 -62 4 -82 25 -14 13 -25 31 -25 38 0
24 35 60 71 73 35 13 196 18 223 8z"/>
<path d="M3833 5968 c2 -185 6 -230 20 -263 35 -78 82 -108 172 -108 89 0 154
42 188 123 l15 35 1 -77 1 -78 60 0 60 0 0 295 0 295 -60 0 -60 0 0 -153 c0
-174 -13 -237 -57 -279 -41 -37 -66 -48 -115 -48 -90 1 -98 23 -98 274 l0 206
-65 0 -66 0 4 -222z"/>
<path d="M9500 6130 l0 -60 65 0 65 0 0 -175 0 -175 -65 0 -65 0 0 -60 0 -60
195 0 195 0 0 60 0 60 -71 0 -71 0 4 235 4 235 -128 0 -128 0 0 -60z"/>
</g>
</svg>
