<?xml version="1.0" encoding="UTF-8"?>
<svg xmlns="http://www.w3.org/2000/svg" xmlns:xlink="http://www.w3.org/1999/xlink" width="272px" height="94px" viewBox="0 0 272 272" version="1.1" color="white" >
<g id="surface1">
<path style=" stroke:none;fill-rule:nonzero;fill:rgb(0%,0%,0%);fill-opacity:1;" d="M 155.109375 126.253906 C 151.910156 126.886719 150.097656 129.335938 149.53125 133.777344 C 149.238281 136.089844 149.53125 138.8125 150.28125 140.804688 C 151.277344 143.480469 153.542969 145.113281 156.285156 145.132812 C 160.683594 145.179688 162.972656 142.503906 163.539062 136.726562 L 163.699219 135.320312 L 157.078125 135.320312 L 157.078125 138.039062 L 159.007812 138.039062 C 161.226562 138.039062 161.273438 138.085938 160.390625 139.964844 C 159.460938 142.007812 158.054688 142.777344 155.765625 142.503906 C 154.902344 142.414062 154.5625 142.234375 153.863281 141.484375 C 152.707031 140.238281 152.230469 138.5625 152.230469 135.660156 C 152.230469 132.804688 152.683594 131.195312 153.863281 129.878906 C 154.675781 128.949219 154.8125 128.882812 156.082031 128.816406 C 157.101562 128.746094 157.601562 128.816406 158.214844 129.15625 C 159.210938 129.699219 159.980469 130.832031 160.164062 131.964844 L 160.320312 132.828125 L 162.746094 132.828125 L 162.769531 130.898438 C 162.769531 129.835938 162.792969 128.609375 162.792969 128.179688 C 162.792969 126.390625 162.859375 126.480469 161.5 126.480469 L 160.253906 126.480469 L 160.230469 127.546875 C 160.230469 128.15625 160.164062 128.476562 160.09375 128.292969 C 159.824219 127.546875 158.734375 126.683594 157.667969 126.367188 C 156.445312 126.003906 156.46875 126.003906 155.109375 126.253906 Z M 155.109375 126.253906 "/>
<path style=" stroke:none;fill-rule:nonzero;fill:rgb(0%,0%,0%);fill-opacity:1;" d="M 23.371094 135.773438 L 23.390625 145.066406 L 35.132812 145.066406 L 35.132812 142.347656 L 26.292969 142.347656 L 26.292969 136.90625 L 33.320312 136.90625 L 33.320312 134.1875 L 26.292969 134.1875 L 26.292969 129.199219 L 35.132812 129.199219 L 35.132812 126.480469 L 23.371094 126.480469 Z M 23.371094 135.773438 "/>
<path style=" stroke:none;fill-rule:nonzero;fill:rgb(0%,0%,0%);fill-opacity:1;" d="M 120.132812 127.839844 L 120.132812 129.199219 L 123.078125 129.199219 L 123.078125 142.347656 L 120.132812 142.347656 L 120.132812 145.066406 L 128.972656 145.066406 L 128.972656 142.347656 L 125.753906 142.347656 L 125.84375 134.414062 L 125.914062 126.480469 L 120.132812 126.480469 Z M 120.132812 127.839844 "/>
<path style=" stroke:none;fill-rule:nonzero;fill:rgb(0%,0%,0%);fill-opacity:1;" d="M 218.097656 128.226562 L 218.167969 129.992188 L 221.339844 129.992188 L 221.40625 128.226562 L 221.476562 126.480469 L 218.03125 126.480469 Z M 218.097656 128.226562 "/>
<path style=" stroke:none;fill-rule:nonzero;fill:rgb(0%,0%,0%);fill-opacity:1;" d="M 43.40625 131.625 C 42.773438 131.785156 42.136719 132.375 41.796875 133.167969 L 41.503906 133.847656 L 41.480469 132.757812 L 41.480469 131.691406 L 38.535156 131.691406 L 38.535156 145.066406 L 41.480469 145.066406 L 41.480469 140.238281 C 41.480469 135.046875 41.617188 134.367188 42.613281 134.230469 C 43.65625 134.074219 43.746094 134.550781 43.746094 140.011719 L 43.746094 145.066406 L 46.464844 145.066406 L 46.464844 141.824219 C 46.488281 137.585938 46.671875 135.320312 47.054688 134.683594 C 47.464844 134.050781 48.394531 134.027344 48.734375 134.617188 C 48.871094 134.890625 48.960938 137.042969 48.960938 140.058594 L 48.960938 145.066406 L 51.679688 145.066406 L 51.679688 139.511719 C 51.679688 133.484375 51.566406 132.757812 50.480469 132.035156 C 49.117188 131.148438 47.667969 131.445312 46.785156 132.757812 L 46.285156 133.507812 L 45.992188 132.804688 C 45.808594 132.351562 45.425781 131.964844 44.96875 131.785156 C 44.175781 131.445312 44.15625 131.445312 43.40625 131.625 Z M 43.40625 131.625 "/>
<path style=" stroke:none;fill-rule:nonzero;fill:rgb(0%,0%,0%);fill-opacity:1;" d="M 59.207031 131.714844 C 58.070312 131.898438 55.875 132.691406 55.464844 133.054688 C 55.328125 133.1875 55.941406 134.796875 56.304688 135.253906 C 56.328125 135.273438 57.03125 135.046875 57.867188 134.753906 C 61.15625 133.550781 64.148438 134.253906 64.148438 136.203125 C 64.148438 136.632812 64.011719 136.679688 62.855469 136.679688 C 59.363281 136.703125 56.078125 137.769531 55.058594 139.21875 C 53.855469 140.917969 54.511719 143.546875 56.394531 144.589844 C 58.296875 145.609375 61.515625 145.246094 63.238281 143.773438 L 64.148438 142.980469 L 64.148438 145.066406 L 66.867188 145.066406 L 66.867188 140.078125 C 66.867188 134.730469 66.753906 134.074219 65.710938 133.054688 C 64.441406 131.851562 61.675781 131.285156 59.207031 131.714844 Z M 63.785156 139.308594 C 64.394531 139.535156 64.214844 140.511719 63.398438 141.328125 C 62.539062 142.1875 61.382812 142.574219 59.546875 142.574219 C 58.457031 142.574219 58.140625 142.484375 57.6875 142.007812 C 57.371094 141.710938 57.121094 141.304688 57.121094 141.144531 C 57.121094 140.601562 57.914062 139.785156 58.730469 139.492188 C 59.523438 139.195312 63.171875 139.082031 63.785156 139.308594 Z M 63.785156 139.308594 "/>
<path style=" stroke:none;fill-rule:nonzero;fill:rgb(0%,0%,0%);fill-opacity:1;" d="M 77.132812 131.738281 C 76.046875 131.964844 74.9375 132.984375 74.324219 134.300781 L 73.894531 135.207031 L 73.894531 131.691406 L 70.945312 131.691406 L 70.945312 145.066406 L 73.894531 145.066406 L 73.894531 141.257812 C 73.894531 137.542969 73.914062 137.40625 74.527344 136.226562 C 75.230469 134.820312 76.207031 134.1875 77.679688 134.1875 C 78.359375 134.1875 78.8125 134.34375 79.265625 134.730469 L 79.898438 135.273438 L 79.96875 140.171875 L 80.035156 145.066406 L 82.734375 145.066406 L 82.734375 140.238281 C 82.734375 133.597656 82.371094 132.53125 79.898438 131.785156 C 78.675781 131.421875 78.496094 131.421875 77.132812 131.738281 Z M 77.132812 131.738281 "/>
<path style=" stroke:none;fill-rule:nonzero;fill:rgb(0%,0%,0%);fill-opacity:1;" d="M 106.964844 131.785156 C 104.925781 132.214844 103.472656 133.324219 102.5 135.207031 C 101.707031 136.746094 101.636719 139.648438 102.363281 141.234375 C 102.929688 142.460938 104.175781 143.753906 105.355469 144.363281 C 108.03125 145.722656 112.0625 145.339844 114.195312 143.480469 L 114.738281 143.027344 L 114.082031 142.121094 C 113.355469 141.101562 113.265625 141.054688 112.472656 141.621094 C 110.976562 142.664062 108.277344 142.890625 106.601562 142.121094 C 105.695312 141.710938 104.71875 140.578125 104.71875 139.898438 C 104.71875 139.695312 105.988281 139.625 110.296875 139.625 L 115.894531 139.625 L 115.734375 138.425781 C 115.394531 135.726562 113.992188 133.28125 112.222656 132.394531 C 111.476562 132.011719 109.09375 131.445312 108.484375 131.488281 C 108.347656 131.488281 107.667969 131.625 106.964844 131.785156 Z M 110.839844 134.707031 C 111.40625 135.003906 111.996094 135.546875 112.246094 136 L 112.652344 136.792969 L 110.75 136.863281 C 109.683594 136.882812 107.894531 136.882812 106.761719 136.863281 L 104.71875 136.792969 L 105.128906 136 C 105.71875 134.933594 107.167969 134.1875 108.6875 134.1875 C 109.480469 134.1875 110.183594 134.367188 110.839844 134.707031 Z M 110.839844 134.707031 "/>
<path style=" stroke:none;fill-rule:nonzero;fill:rgb(0%,0%,0%);fill-opacity:1;" d="M 170.363281 131.691406 C 169.09375 131.921875 166.644531 132.78125 166.464844 133.074219 C 166.394531 133.210938 167.074219 134.890625 167.371094 135.253906 C 167.394531 135.273438 168.097656 135.046875 168.933594 134.753906 C 172.175781 133.574219 175.214844 134.253906 175.214844 136.179688 C 175.214844 136.566406 174.988281 136.632812 172.832031 136.746094 C 169.070312 136.996094 166.644531 138.015625 165.828125 139.738281 C 165.011719 141.417969 165.714844 143.523438 167.414062 144.523438 C 169.296875 145.632812 172.539062 145.269531 174.308594 143.773438 L 175.214844 142.980469 L 175.214844 145.066406 L 177.933594 145.066406 L 177.933594 140.078125 C 177.933594 134.730469 177.820312 134.074219 176.777344 133.054688 C 175.53125 131.875 172.742188 131.285156 170.363281 131.691406 Z M 174.851562 139.308594 C 175.460938 139.535156 175.28125 140.511719 174.464844 141.328125 C 173.605469 142.1875 172.449219 142.574219 170.613281 142.574219 C 169.523438 142.574219 169.207031 142.484375 168.753906 142.007812 C 168.4375 141.710938 168.1875 141.304688 168.1875 141.144531 C 168.1875 140.601562 168.980469 139.785156 169.796875 139.492188 C 170.589844 139.195312 174.238281 139.082031 174.851562 139.308594 Z M 174.851562 139.308594 "/>
<path style=" stroke:none;fill-rule:nonzero;fill:rgb(0%,0%,0%);fill-opacity:1;" d="M 191.328125 131.691406 C 189.585938 132.054688 188.5625 132.828125 187.632812 134.503906 L 187.25 135.207031 L 187.226562 133.4375 L 187.226562 131.691406 L 181.332031 131.691406 L 181.332031 134.1875 L 184.507812 134.1875 L 184.507812 142.347656 L 181.332031 142.347656 L 181.332031 145.066406 L 190.171875 145.066406 L 190.171875 142.347656 L 187.226562 142.347656 L 187.226562 140.011719 C 187.226562 137.949219 187.292969 137.542969 187.816406 136.5 C 188.292969 135.523438 188.585938 135.230469 189.628906 134.730469 C 190.671875 134.230469 191.058594 134.140625 192.257812 134.230469 C 193.050781 134.300781 193.824219 134.390625 194.003906 134.4375 C 194.207031 134.503906 194.503906 134.097656 194.820312 133.28125 C 195.296875 132.148438 195.320312 132.011719 194.980469 131.898438 C 194.207031 131.601562 192.304688 131.511719 191.328125 131.691406 Z M 191.328125 131.691406 "/>
<path style=" stroke:none;fill-rule:nonzero;fill:rgb(0%,0%,0%);fill-opacity:1;" d="M 202.003906 131.714844 C 197.0625 132.691406 195.25 139.945312 199.058594 143.390625 C 199.558594 143.84375 200.328125 144.363281 200.78125 144.546875 C 203.570312 145.703125 207.355469 145.246094 209.394531 143.480469 L 209.9375 143.027344 L 209.28125 142.121094 C 208.554688 141.101562 208.464844 141.054688 207.671875 141.621094 C 205.519531 143.117188 201.871094 142.777344 200.53125 140.964844 C 199.578125 139.648438 199.558594 137.292969 200.464844 135.953125 C 201.257812 134.777344 202.050781 134.34375 203.480469 134.253906 C 205.519531 134.117188 206.855469 135.160156 207.105469 137.132812 L 207.242188 138.039062 L 209.667969 138.039062 L 209.667969 131.691406 L 207.171875 131.691406 L 207.171875 133.847656 L 206.742188 133.144531 C 206.015625 131.941406 203.953125 131.308594 202.003906 131.714844 Z M 202.003906 131.714844 "/>
<path style=" stroke:none;fill-rule:nonzero;fill:rgb(0%,0%,0%);fill-opacity:1;" d="M 233.714844 131.714844 C 232.628906 131.898438 229.839844 132.984375 229.839844 133.210938 C 229.839844 133.28125 230.746094 135.136719 230.835938 135.253906 C 230.859375 135.273438 231.5625 135.046875 232.402344 134.753906 C 235.6875 133.550781 238.679688 134.253906 238.679688 136.203125 C 238.679688 136.632812 238.542969 136.679688 237.386719 136.679688 C 233.125 136.703125 230.132812 137.925781 229.25 140.011719 C 228.546875 141.644531 229.25 143.570312 230.882812 144.523438 C 232.765625 145.632812 236.003906 145.269531 237.773438 143.773438 L 238.679688 142.980469 L 238.679688 145.066406 L 241.398438 145.066406 L 241.398438 140.078125 C 241.398438 134.730469 241.285156 134.074219 240.242188 133.054688 C 238.976562 131.851562 236.210938 131.285156 233.714844 131.714844 Z M 238.316406 139.308594 C 238.929688 139.535156 238.746094 140.511719 237.933594 141.328125 C 237.070312 142.1875 235.914062 142.574219 234.078125 142.574219 C 232.992188 142.574219 232.671875 142.484375 232.21875 142.007812 C 231.902344 141.710938 231.652344 141.304688 231.652344 141.144531 C 231.652344 140.601562 232.445312 139.785156 233.261719 139.492188 C 234.054688 139.195312 237.707031 139.082031 238.316406 139.308594 Z M 238.316406 139.308594 "/>
<path style=" stroke:none;fill-rule:nonzero;fill:rgb(0%,0%,0%);fill-opacity:1;" d="M 86.882812 136.726562 C 86.925781 140.917969 87.015625 141.9375 87.335938 142.6875 C 88.128906 144.453125 89.191406 145.132812 91.234375 145.132812 C 93.25 145.132812 94.722656 144.183594 95.496094 142.347656 L 95.835938 141.554688 L 95.855469 143.296875 L 95.878906 145.066406 L 98.601562 145.066406 L 98.601562 131.691406 L 95.878906 131.691406 L 95.878906 135.160156 C 95.878906 139.105469 95.585938 140.535156 94.589844 141.484375 C 93.660156 142.324219 93.09375 142.574219 91.980469 142.574219 C 89.941406 142.550781 89.761719 142.050781 89.761719 136.363281 L 89.761719 131.691406 L 86.789062 131.691406 Z M 86.882812 136.726562 "/>
<path style=" stroke:none;fill-rule:nonzero;fill:rgb(0%,0%,0%);fill-opacity:1;" d="M 215.332031 133.054688 L 215.332031 134.414062 L 218.28125 134.414062 L 218.28125 142.347656 L 215.332031 142.347656 L 215.332031 145.066406 L 224.171875 145.066406 L 224.171875 142.347656 L 220.953125 142.347656 L 221.046875 137.019531 L 221.136719 131.691406 L 215.332031 131.691406 Z M 215.332031 133.054688 "/>
</g>
</svg>
